<?xml version="1.0" encoding="UTF-8" standalone="no"?>
<!-- Created with Inkscape (http://www.inkscape.org/) -->

<svg
   xmlns:dc="http://purl.org/dc/elements/1.1/"
   xmlns:cc="http://creativecommons.org/ns#"
   xmlns:rdf="http://www.w3.org/1999/02/22-rdf-syntax-ns#"
   xmlns:svg="http://www.w3.org/2000/svg"
   xmlns="http://www.w3.org/2000/svg"
   xmlns:sodipodi="http://sodipodi.sourceforge.net/DTD/sodipodi-0.dtd"
   xmlns:inkscape="http://www.inkscape.org/namespaces/inkscape"
   width="744.09448819"
   height="1052.3622047"
   id="svg2"
   version="1.1"
   inkscape:version="0.48.4 r9939"
   sodipodi:docname="logo.svg"
   inkscape:export-filename="/home/tia/codes/github-com/octoyaml/img/logo.png"
   inkscape:export-xdpi="216.91"
   inkscape:export-ydpi="216.91">
  <defs
     id="defs4" />
  <sodipodi:namedview
     id="base"
     pagecolor="#ffffff"
     bordercolor="#666666"
     borderopacity="1.0"
     inkscape:pageopacity="0.0"
     inkscape:pageshadow="2"
     inkscape:zoom="0.98994949"
     inkscape:cx="118.68747"
     inkscape:cy="695.43327"
     inkscape:document-units="px"
     inkscape:current-layer="g4034"
     showgrid="false"
     inkscape:window-width="1920"
     inkscape:window-height="1012"
     inkscape:window-x="0"
     inkscape:window-y="25"
     inkscape:window-maximized="1" />
  <metadata
     id="metadata7">
    <rdf:RDF>
      <cc:Work
         rdf:about="">
        <dc:format>image/svg+xml</dc:format>
        <dc:type
           rdf:resource="http://purl.org/dc/dcmitype/StillImage" />
        <dc:title></dc:title>
      </cc:Work>
    </rdf:RDF>
  </metadata>
  <g
     inkscape:groupmode="layer"
     id="layer2"
     inkscape:label="fej hatter"
     sodipodi:insensitive="true">
    <path
       sodipodi:type="arc"
       style="fill:#ffffff;fill-opacity:1;stroke:none"
       id="path4011"
       sodipodi:cx="338.77991"
       sodipodi:cy="133.88098"
       sodipodi:rx="37.249374"
       sodipodi:ry="40.658642"
       d="m 376.02928,133.88098 a 37.249374,40.658642 0 1 1 -74.49875,0 37.249374,40.658642 0 1 1 74.49875,0 z"
       transform="matrix(1.4338983,0,0,1.552795,-103.05439,-34.107713)" />
  </g>
  <g
     inkscape:label="csapok"
     inkscape:groupmode="layer"
     id="layer1"
     style="display:inline"
     sodipodi:insensitive="true">
    <path
       style="fill:#4cb8ff;fill-opacity:1;stroke:#002969;stroke-width:7.5;stroke-linecap:round;stroke-linejoin:round;stroke-miterlimit:4;stroke-opacity:1;stroke-dasharray:none"
       id="path3845"
       d="m 387.19567,222.83894 c -1.96106,3.42858 -4.02085,6.79423 -6.19008,10.09446 -1.86674,2.69856 -3.67665,5.44084 -5.6464,8.06629 -5.0142,6.51858 -12.82488,9.4804 -19.84182,13.54326 -3.83135,2.11776 -8.07993,3.09264 -12.32598,3.9834 -4.65334,0.96892 -9.36844,1.08351 -14.09204,0.82552 -4.84705,-0.34279 -9.70232,-0.50481 -14.55958,-0.60084 -5.40172,-0.10179 -10.78866,-0.22803 -16.16342,0.37711 -4.83162,0.80002 -9.59908,1.93173 -14.41567,2.80634 -3.89565,0.81035 -7.68555,2.04465 -11.41423,3.4194 -1.71136,0.68501 -2.29565,0.87663 -3.93517,1.69833 -0.5941,0.29775 -2.32864,1.28143 -1.75329,0.9489 20.27377,-11.71731 12.43166,-7.56339 8.33572,-4.40194 -2.55818,2.2282 -4.58213,4.98441 -6.59035,7.69835 -1.84116,2.69328 -3.82745,5.28098 -5.72451,7.93386 -1.67335,2.26171 -2.56161,4.89999 -3.12103,7.62456 -0.62103,3.52838 -0.57941,7.08613 -0.2741,10.63892 0,0 -13.07909,6.82804 -13.07909,6.82804 l 0,0 c -0.409,-3.64258 -0.55719,-7.29113 -0.0436,-10.93706 0.44555,-2.89288 1.19837,-5.73892 2.81762,-8.21687 1.917,-2.65821 3.94279,-5.23456 5.75459,-7.96832 2.03384,-2.76068 4.0266,-5.58917 6.45886,-8.01831 6.4371,-5.95115 14.75112,-9.7061 22.84169,-12.95226 3.77999,-1.32514 7.61414,-2.5176 11.56287,-3.23283 4.79105,-0.91685 9.55936,-1.97581 14.39575,-2.63614 5.42679,-0.48113 10.86371,-0.35686 16.30671,-0.2615 4.87182,0.10428 9.73962,0.29888 14.60272,0.61336 4.65424,0.16031 9.29969,-0.10653 13.85818,-1.13536 4.21801,-0.98442 8.39647,-2.13264 12.1329,-4.40666 -24.97245,14.47759 -10.39615,6.66175 -7.29144,3.81087 0.2902,-0.26647 1.58171,-1.79775 1.83432,-2.09364 2.05627,-2.57 3.8461,-5.33158 5.7746,-7.99625 2.13638,-3.24702 4.30801,-6.4786 6.0823,-9.94473 0,0 13.70296,-6.10826 13.70296,-6.10826 z"
       inkscape:connector-curvature="0" />
    <path
       style="fill:#4cb8ff;fill-opacity:1;stroke:#002969;stroke-width:7.5;stroke-linecap:round;stroke-linejoin:round;stroke-miterlimit:4;stroke-opacity:1;stroke-dasharray:none"
       id="path3847"
       d="m 389.28289,224.87247 c -1.44541,3.68813 -2.58427,7.48378 -3.73674,11.27042 -1.33921,4.56163 -3.15839,8.95393 -4.96081,13.34571 -1.74795,4.39551 -3.68531,8.70597 -5.92388,12.87298 -1.59939,2.96993 -3.71047,5.59135 -5.96053,8.08447 -2.10338,2.37691 -4.62163,4.31758 -7.19403,6.15374 -5.49219,3.51544 -11.25329,6.64788 -16.94832,9.78362 -1.27204,0.70039 -2.92553,0.98494 -4.30443,1.41276 -3.14922,1.03611 -6.37347,1.92268 -9.62967,2.55965 -3.47687,0.658 -7.02324,0.95306 -10.42197,1.96699 -0.54657,0.20446 -1.10228,0.38597 -1.63971,0.61337 -0.67738,0.28662 -2.48046,1.19335 -3.11302,1.54426 -0.50846,0.28208 -2.00502,1.17862 -1.49956,0.8912 11.41435,-6.49056 14.92683,-8.9376 9.95588,-5.54762 -2.62779,2.07233 -5.38553,3.969 -8.04569,5.99802 -2.64641,1.92651 -4.85265,4.29905 -6.81301,6.90158 -2.25389,3.20807 -4.07369,6.68817 -5.58245,10.29972 -1.63521,3.95459 -2.65277,8.08823 -3.27371,12.31021 -0.96959,6.48358 0.30177,12.89694 1.72924,19.20249 0,0 -12.75465,6.8804 -12.75465,6.8804 l 0,0 c -1.60978,-6.39787 -3.07556,-12.91342 -2.22483,-19.55147 0.51865,-4.31809 1.4134,-8.55268 3.04347,-12.60289 1.40653,-3.72823 3.26713,-7.26203 5.41226,-10.61986 1.86235,-2.73742 3.96869,-5.28347 6.62958,-7.29006 2.62714,-2.08499 5.43761,-3.91432 8.02141,-6.0528 5.65256,-4.23749 1.29716,-1.0504 15.47949,-9.28191 2.03574,-1.18156 4.22022,-2.11614 6.48641,-2.75024 3.4612,-0.79717 6.99863,-1.19986 10.47715,-1.921 3.22478,-0.75085 6.4312,-1.6044 9.56121,-2.68901 0.94143,-0.30612 1.8341,-0.57505 2.74892,-0.95481 0.47062,-0.19536 1.82676,-0.89854 1.39014,-0.63586 -20.4598,12.30905 -13.0807,7.56996 -8.56608,4.97569 2.62433,-1.68044 5.14158,-3.5871 7.31057,-5.8316 2.28734,-2.41148 4.4983,-4.91155 6.1866,-7.79317 2.34135,-4.08822 4.31863,-8.3599 6.05676,-12.73864 1.76097,-4.35894 3.63495,-8.68087 4.97094,-13.1963 1.12453,-3.77985 2.29188,-7.54578 3.53792,-11.28657 0,0 13.59514,-6.32347 13.59514,-6.32347 z"
       inkscape:connector-curvature="0" />
    <path
       style="fill:#4cb8ff;fill-opacity:1;stroke:#002969;stroke-width:7.5;stroke-linecap:round;stroke-linejoin:round;stroke-miterlimit:4;stroke-opacity:1;stroke-dasharray:none"
       id="path3849"
       d="m 385.34804,219.64125 c -1.34549,3.80026 -1.08719,7.63572 -0.33883,11.51657 0.89751,4.32257 2.61287,8.35054 4.2396,12.42274 1.4337,3.45236 3.09795,6.79254 4.48657,10.26494 1.26194,3.08327 1.62839,6.3399 1.50027,9.63863 -0.16937,3.0367 -1.61365,5.53821 -3.41202,7.89131 -1.82145,2.20435 -3.87487,4.20145 -5.90166,6.21376 -2.03425,2.01015 -4.06481,4.024 -6.0916,6.04167 -2.02416,2.01672 -4.0447,4.03706 -6.06532,6.05733 -1.81862,1.98575 -3.5911,4.03212 -5.16824,6.21661 -1.90455,2.62299 -2.64015,5.67903 -3.06435,8.83121 -0.37489,4.04458 0.68528,7.91022 1.82391,11.742 1.75571,5.59655 3.57564,11.16694 5.89957,16.55521 3.62031,7.68718 9.56589,13.75772 15.54079,19.64149 3.75928,3.69165 8.2368,6.20615 12.86581,8.59294 0,0 -12.0126,7.86671 -12.0126,7.86671 l 0,0 c -4.6892,-2.52664 -9.24412,-5.17336 -13.08108,-8.94769 -6.15719,-5.98095 -12.33147,-12.11943 -16.08642,-19.96933 -2.38356,-5.41593 -4.24696,-11.0198 -6.09331,-16.6385 -1.26121,-3.98975 -2.41533,-8.00279 -2.19629,-12.24027 0.33047,-3.30815 0.89894,-6.59675 2.7186,-9.45512 1.46985,-2.32772 3.32076,-4.35087 5.05732,-6.48072 2.02072,-2.02071 4.04128,-4.04158 6.06436,-6.05992 2.02576,-2.01956 4.05373,-4.03691 6.0901,-6.04578 2.01564,-1.9914 4.05221,-3.96551 5.96004,-6.06183 1.78785,-2.07604 3.46066,-4.24682 3.82527,-7.05355 0.22764,-3.1075 -0.0128,-6.15556 -1.17022,-9.08843 -1.34717,-3.48878 -3.04081,-6.81624 -4.4492,-10.27887 -1.6477,-4.16009 -3.34533,-8.28726 -4.32116,-12.67832 -0.86058,-4.02416 -1.30145,-8.01667 -0.1849,-12.05208 0,0 13.56499,-6.44271 13.56499,-6.44271 z"
       inkscape:connector-curvature="0" />
    <path
       style="fill:#4cb8ff;fill-opacity:1;stroke:#002969;stroke-width:7.5;stroke-linecap:round;stroke-linejoin:round;stroke-miterlimit:4;stroke-opacity:1;stroke-dasharray:none"
       id="path3851"
       d="m 404.16192,221.62955 c 3.06069,2.32566 6.18701,4.55607 9.16816,6.9863 2.31145,1.99889 4.2501,4.2843 5.7299,6.95152 1.43575,2.70089 2.5458,5.56746 3.59535,8.43747 1.27251,3.90501 1.70927,8.00324 2.26063,12.05372 0.52547,3.61802 0.76779,7.26655 0.88386,10.91798 -0.0526,2.71253 -0.46963,5.39868 -0.71139,8.09764 -0.21422,2.82169 -0.21261,5.65319 -0.23487,8.48109 0.0949,2.55359 -0.0162,5.07293 -0.38648,7.59863 -0.52346,2.6785 0.0531,5.31262 0.87656,7.86178 0.81715,3.2305 2.49036,6.02723 4.30589,8.77122 1.70515,2.54617 3.74921,4.83146 5.84084,7.06082 2.16018,2.44596 4.04143,5.11347 6.09555,7.64604 1.87836,2.44383 4.14805,4.49526 6.45782,6.51388 1.97452,1.80298 4.17356,3.35141 6.52318,4.62344 2.38986,0.99351 4.87252,1.69049 7.38039,2.3134 4.21097,0.90724 8.48472,1.45672 12.75666,1.99124 3.17046,0.36788 6.35797,0.5301 9.54341,0.69689 0,0 -11.89788,8.54481 -11.89788,8.54481 l 0,0 c -3.22399,-0.18587 -6.44931,-0.37075 -9.65936,-0.73666 -4.36652,-0.53214 -8.74907,-1.03158 -13.04002,-2.02773 -2.60292,-0.69567 -5.21479,-1.40043 -7.63185,-2.62246 -2.36954,-1.41442 -4.61622,-3.0221 -6.63728,-4.90877 -2.36537,-2.0817 -4.6702,-4.21777 -6.58606,-6.73682 -2.01625,-2.51738 -3.8867,-5.15275 -6.05731,-7.54348 -2.13238,-2.30056 -4.20239,-4.66707 -5.9484,-7.28111 -1.89985,-2.84456 -3.59659,-5.78449 -4.48453,-9.12373 -0.92583,-2.70105 -1.7503,-5.56724 -1.28677,-8.44459 0.3917,-2.47086 0.69645,-4.91125 0.52909,-7.42471 0.005,-2.85536 0.0307,-5.71186 0.1585,-8.56472 0.17764,-2.67346 0.62552,-5.3143 0.83796,-7.98444 -0.0891,-3.61244 -0.25191,-7.22634 -0.74441,-10.81017 -0.54087,-3.93891 -0.93908,-7.93757 -2.1571,-11.73908 -1.05055,-2.78984 -2.14923,-5.57578 -3.53793,-8.21589 -1.36872,-2.50263 -3.23361,-4.6167 -5.37208,-6.50239 -2.96297,-2.42825 -6.04841,-4.69173 -9.22231,-6.83741 0,0 12.65228,-8.04371 12.65228,-8.04371 z"
       inkscape:connector-curvature="0" />
  </g>
  <g
     inkscape:groupmode="layer"
     id="layer4"
     inkscape:label="csapok2"
     style="display:inline"
     sodipodi:insensitive="true">
    <path
       style="fill:#0071ba;fill-opacity:1;stroke:#002255;stroke-width:8;stroke-linecap:round;stroke-linejoin:round;stroke-miterlimit:4;stroke-opacity:1;stroke-dasharray:none"
       id="path4004"
       d="m 367.90264,217.74364 c -2.87544,2.05206 -5.42917,4.52449 -7.82561,7.10977 -2.14467,2.41848 -4.30688,4.8202 -6.52762,7.16915 -1.95587,2.03104 -3.88536,4.08979 -6.02247,5.93252 -1.98189,1.6625 -3.91975,3.36865 -6.01583,4.88744 -6.45368,3.93166 -12.89149,8.11914 -20.02201,10.71862 -2.43391,0.92798 -4.88473,1.573 -7.46811,1.91106 -2.52799,0.60372 -5.09866,0.9587 -7.64421,1.48172 -2.43286,0.52507 -4.91201,0.66979 -7.39145,0.74532 -3.33067,0.24636 -6.58874,-0.52533 -9.79887,-1.31721 -4.20899,-0.95265 -8.31102,-2.29908 -12.49737,-3.34803 -4.75188,-1.40622 -9.67891,-1.91431 -14.60323,-2.22905 -3.65674,-0.19645 -7.31953,-0.19838 -10.98022,-0.17747 -2.54625,-0.31601 -4.51323,0.64153 -6.71313,1.75223 -5.73933,3.36397 3.86893,-2.27356 10.1323,-5.78536 0.45072,-0.25271 -0.86684,0.56316 -1.28948,0.86048 -1.24131,0.87325 -2.39109,1.84866 -3.53791,2.83973 -2.1626,1.93351 -4.20661,3.99396 -6.25613,6.04538 -2.01633,2.02489 -4.03219,4.05025 -6.0503,6.07337 -1.76166,1.73038 -3.14114,3.76623 -4.39012,5.8815 -1.29988,1.96158 -2.57295,3.91687 -3.66213,6.0053 -0.93942,1.97412 -1.68854,3.99924 -2.0856,6.14932 -0.34353,2.96077 0.70775,5.7152 1.73521,8.43121 1.65981,4.36598 3.64931,8.56115 6.04738,12.56722 2.47385,4.04738 5.1783,7.94184 8.36467,11.45855 2.11532,2.39547 4.43107,4.48741 7.1158,6.20544 2.65613,1.63458 5.53331,2.79207 8.54591,3.56197 3.94664,0.81891 7.94302,1.04501 11.94754,0.68898 2.73593,-0.20839 5.42786,-0.57304 8.06879,-1.32382 2.04436,-0.78733 3.99482,-1.78959 5.99137,-2.68737 0,0 -11.63166,9.23616 -11.63166,9.23616 l 0,0 c -2.03125,0.93907 -4.04745,1.95889 -6.22288,2.52818 -2.6982,0.60356 -5.43077,0.9275 -8.19223,1.07745 -4.09943,0.18022 -8.20044,-0.20115 -12.20561,-1.11171 -3.12578,-0.90258 -6.14832,-2.12302 -8.89118,-3.89818 -2.72605,-1.84314 -5.03386,-4.1416 -7.21301,-6.60278 -3.18366,-3.63408 -5.91949,-7.61661 -8.45245,-11.72827 -2.44857,-4.06845 -4.49456,-8.32759 -6.25146,-12.73993 -1.16925,-2.92447 -2.33058,-5.86655 -2.1994,-9.07818 0.30968,-2.29621 0.92549,-4.43504 1.88634,-6.54773 0.99488,-2.16666 2.18392,-4.21111 3.62059,-6.11618 1.28842,-2.17681 2.52347,-4.38771 4.27836,-6.24102 2.01901,-2.02257 4.03662,-4.04653 6.05138,-6.07334 2.05608,-2.06536 4.10434,-4.14002 6.2313,-6.13296 5.93602,-5.41455 12.85857,-9.44098 20.19681,-12.84395 2.32498,-1.023 4.56988,-1.4744 7.12482,-1.23522 3.63641,0.0336 7.27331,0.12029 10.90265,0.36179 4.98795,0.39857 9.95627,1.03453 14.77788,2.42999 4.1739,1.09321 8.29945,2.37239 12.5164,3.29262 3.18675,0.68805 6.38219,1.25216 9.65679,0.92549 2.43227,-0.13041 4.85342,-0.39497 7.23507,-0.92369 2.56012,-0.51233 5.14291,-0.90097 7.69847,-1.43772 2.49823,-0.45493 4.88562,-1.25588 7.25769,-2.15617 1.23191,-0.50873 2.44858,-1.03533 3.64875,-1.61572 0.39568,-0.19135 1.56127,-0.80615 1.183,-0.58234 -9.61552,5.68919 -15.82253,9.03277 -10.50364,6.15467 2.21594,-1.34133 4.12672,-3.0633 6.09119,-4.73996 2.18934,-1.77252 4.18753,-3.72694 6.11162,-5.78719 2.25057,-2.33647 4.45807,-4.71349 6.59175,-7.15772 2.35414,-2.63471 4.86239,-5.09318 7.54945,-7.39202 0,0 13.98604,-5.47234 13.98604,-5.47234 z"
       inkscape:connector-curvature="0" />
    <path
       style="fill:#0071ba;fill-opacity:1;stroke:#002255;stroke-width:8;stroke-linecap:round;stroke-linejoin:round;stroke-miterlimit:4;stroke-opacity:1;stroke-dasharray:none"
       id="path4006"
       d="m 368.31063,224.75344 c -0.0518,5.07567 -0.14707,10.13794 -0.65148,15.19168 -0.39153,5.04017 -1.6835,9.89737 -3.40022,14.62934 -1.34214,3.77328 -3.28191,7.24442 -5.66711,10.44545 -1.86882,2.35201 -3.95715,4.52268 -6.14507,6.57751 -2.4292,2.13041 -5.07124,3.99524 -7.5689,6.04331 -6.9657,5.52829 -14.85012,9.9792 -23.24279,12.93687 -5.39723,1.811 -10.96188,3.08688 -16.48939,4.43469 -4.53047,0.93221 -9.0582,1.72952 -13.54641,2.84564 -3.14364,0.99496 -6.25555,2.07019 -9.38054,3.11881 -5.94578,1.64146 -19.30576,10.01955 3.35494,-2.932 -2.76347,1.72104 -4.9253,4.0958 -6.85811,6.67744 -2.30805,3.3611 -4.13052,7.01939 -6.1043,10.5792 -1.77539,3.02565 -3.22271,6.22402 -4.32227,9.55264 -1.00858,2.86446 -0.74594,5.02321 0.30708,7.79776 1.34707,3.3975 3.28823,6.45362 5.52742,9.32068 2.374,3.18714 5.61038,5.47399 8.81745,7.74437 4.86832,3.20972 10.28286,5.42252 15.82754,7.14764 7.49781,2.13589 15.05465,1.43903 22.6381,0.29523 9.69699,-1.63644 19.04132,-4.87428 28.36027,-7.9395 2.61207,-1.01994 5.74619,-2.18628 8.30028,-3.3962 1.12117,-0.53111 4.3625,-2.3627 3.29494,-1.7307 -16.79875,9.94508 -9.99804,6.23631 -5.70987,2.19583 2.78185,-2.87359 4.02282,-6.47985 4.8678,-10.29055 0,0 13.35473,-6.45683 13.35473,-6.45683 l 0,0 c -0.81154,4.00259 -1.89849,7.90676 -4.59348,11.10118 -5.65815,6.00394 -11.01407,7.92208 -19.30504,12.56627 -3.65038,2.04477 -7.67613,3.33207 -11.56317,4.82224 -9.38761,3.06207 -18.80587,6.27418 -28.59128,7.80171 -7.72435,1.06711 -15.59994,1.61677 -23.16926,-0.72572 -5.66097,-1.85347 -11.20696,-4.12506 -16.18436,-7.44736 -3.34971,-2.33613 -6.68191,-4.73939 -9.11087,-8.08239 -2.3101,-2.9904 -4.31781,-6.16399 -5.78418,-9.66246 -1.16981,-2.87259 -1.80695,-5.65278 -0.78286,-8.69575 1.0402,-3.44054 2.47178,-6.75176 4.27904,-9.86218 1.99112,-3.57518 3.85015,-7.22575 5.99712,-10.71117 1.83702,-2.72609 3.89942,-5.28972 6.62702,-7.18192 7.40196,-4.3525 14.11832,-9.19255 22.30152,-11.6441 3.11429,-1.05976 6.23277,-2.12212 9.40929,-2.98143 4.44695,-1.07979 8.97907,-1.68387 13.42918,-2.75284 5.5287,-1.34878 11.08851,-2.665 16.44445,-4.60933 6.05146,-2.30762 10.83684,-5.65015 -6.57143,4.6571 -1.03826,0.61475 2.09239,-1.21138 3.06652,-1.92339 0.43444,-0.31754 0.85205,-0.65751 1.27807,-0.98626 2.45684,-2.09213 5.06053,-3.98557 7.57922,-5.9973 2.27391,-1.91485 4.29218,-4.11808 6.26673,-6.33601 2.49061,-3.0486 4.58704,-6.36396 5.95396,-10.07929 1.7863,-4.61745 3.18891,-9.35617 3.60261,-14.31718 0.58691,-4.96023 0.75194,-9.94624 0.50508,-14.93753 0,0 13.35203,-6.8032 13.35203,-6.8032 z"
       inkscape:connector-curvature="0" />
    <path
       style="fill:#0071ba;fill-opacity:1;stroke:#002255;stroke-width:8;stroke-linecap:round;stroke-linejoin:round;stroke-miterlimit:4;stroke-opacity:1;stroke-dasharray:none"
       id="path4008"
       d="m 374.78267,228.74396 c 2.78302,2.27001 5.13969,4.94675 7.26609,7.82682 2.4229,3.07364 3.4337,6.60251 4.00896,10.39736 0.44901,4.43963 -0.4931,8.7102 -1.80537,12.91461 -1.2687,3.99693 -3.26881,7.66326 -5.48379,11.19967 -1.75207,2.75997 -3.90839,5.21698 -6.14662,7.58606 -3.28129,3.34298 -6.52014,6.72721 -9.73506,10.13419 -5.16007,5.11182 -10.30324,10.23049 -15.07495,15.71069 -4.13874,4.66654 -7.24916,10.07055 -10.29289,15.47708 -2.05656,3.52786 -3.56448,7.3312 -4.66196,11.25584 -0.80096,3.11626 -1.07335,6.24991 -0.19206,9.3602 1.70046,3.95139 4.83052,7.05717 7.77395,10.10461 5.64365,5.92514 11.91203,9.19589 19.27333,12.47607 7.35247,2.7877 15.21984,4.27328 23.07637,4.61499 1.60814,0.0699 3.21931,-0.002 4.82897,-0.002 8.26026,-0.38081 16.52575,-1.69736 24.39475,-4.29634 1.67355,-0.55274 3.29878,-1.24224 4.94817,-1.86336 -2.74104,2.21492 13.12327,-6.7523 9.96223,-4.84386 -2.33722,1.41108 -4.49708,3.42525 -7.17703,3.94641 -2.02566,0.39393 3.41358,-2.32117 5.07984,-3.53857 4.94068,-3.60976 5.71973,-4.40957 10.45691,-8.40124 6.82305,-6.43635 3.58868,-3.06343 9.70784,-10.11423 0,0 12.95988,-5.48957 12.95988,-5.48957 l 0,0 c -6.03576,7.21404 -2.83607,3.77692 -9.59885,10.31156 -4.88859,4.21858 -5.22599,4.65677 -10.31378,8.48039 -9.94646,7.47502 -20.91771,13.64486 -32.37274,18.47704 -1.67916,0.5961 -3.33733,1.25497 -5.03747,1.78828 -7.97986,2.50315 -16.32544,3.77052 -24.67324,3.99977 -9.63924,-0.19583 -19.30662,-1.38297 -28.29981,-5.05974 -7.44764,-3.33615 -13.99443,-6.88551 -19.73652,-12.82963 -3.16148,-3.18115 -6.53785,-6.42431 -8.34687,-10.60734 -1.02272,-3.34157 -0.94219,-6.70056 -0.15487,-10.10404 1.05336,-4.05935 2.5554,-7.99779 4.62484,-11.65475 3.14562,-5.45532 6.1813,-11.02158 10.33216,-15.80478 4.71195,-5.50572 9.7709,-10.68416 14.9697,-15.73071 3.14514,-3.38478 6.28288,-6.77373 9.52646,-10.06314 2.24013,-2.31803 4.46009,-4.67267 6.28749,-7.33988 2.27604,-3.42037 4.35881,-6.97039 5.71082,-10.87153 1.30233,-4.00164 2.39375,-8.02708 2.04381,-12.28819 -0.47226,-3.56534 -1.36076,-6.87675 -3.65892,-9.74572 -2.08202,-2.78707 -4.35028,-5.40885 -7.19408,-7.4555 0,0 12.72431,-7.95703 12.72431,-7.95703 z"
       inkscape:connector-curvature="0" />
    <path
       style="fill:#0071ba;fill-opacity:1;stroke:#002255;stroke-width:8;stroke-linecap:round;stroke-linejoin:round;stroke-miterlimit:4;stroke-opacity:1;stroke-dasharray:none"
       id="path4010"
       d="m 386.9045,231.77441 c 2.76933,2.38254 5.31822,5.00908 7.68926,7.78535 2.38535,2.7014 4.63103,5.42922 6.35826,8.59864 1.96986,4.2686 3.24649,8.84788 4.32518,13.41485 0.9991,4.82363 1.183,9.75624 1.31642,14.66449 0.10264,3.50276 0.20011,6.9951 -0.16838,10.4832 -0.25743,3.30471 -0.89172,6.55824 -1.29159,9.84538 -0.46997,3.63616 -0.46184,7.26955 0.0234,10.89738 0.72513,4.11477 2.54553,7.89976 4.19047,11.70331 2.35566,5.29237 5.93187,9.86758 9.49218,14.38709 3.68782,4.68163 8.32696,8.32781 13.22355,11.64598 5.35941,3.63677 10.00308,8.21965 15.39787,11.81445 1.29965,0.86602 2.66305,1.63232 3.99458,2.44848 7.05152,4.08209 14.71816,7.0736 22.79674,8.3116 1.59417,0.2443 3.20687,0.34668 4.8103,0.52001 8.55655,0.37953 16.88718,-1.50818 24.66349,-5.02435 1.69635,-0.76703 3.33014,-1.66551 4.99521,-2.49826 1.66908,-0.97425 6.75343,-3.75087 5.00723,-2.92276 -2.45144,1.16256 -4.5004,3.25466 -7.12846,3.92872 -1.85413,0.47556 3.1732,-2.14523 4.69609,-3.30485 2.83157,-2.15612 5.05311,-4.08475 7.33145,-6.80319 0.90668,-1.08183 1.65699,-2.28562 2.48549,-3.42843 2.76349,-4.6447 4.58382,-9.9907 2.78216,-15.34107 -0.3638,-1.08041 -0.90918,-2.09091 -1.36377,-3.13636 -4.82435,-8.48488 -12.42828,-14.97323 -20.53306,-20.24713 -2.17993,-1.41852 -4.48522,-2.6344 -6.72784,-3.9516 -7.10616,-3.8415 -14.66073,-6.60213 -22.38379,-8.89093 -4.26473,-1.26388 -9.84682,-2.78765 -14.24743,-3.60997 -2.10824,-0.39396 -4.24675,-0.60385 -6.37012,-0.90578 -5.29404,-0.69406 -10.53024,-0.30395 -15.79009,0.33556 0,0 11.57585,-8.59618 11.57585,-8.59618 l 0,0 c 5.27576,-0.46329 10.52948,-0.71466 15.80033,0.11128 2.11341,0.35282 4.24142,0.62721 6.34024,1.05845 12.75455,2.62069 25.19589,6.97853 36.77566,12.91248 2.27973,1.3426 4.61672,2.59241 6.83919,4.02781 8.36797,5.40451 16.29276,11.94053 21.44382,20.57961 0.5179,1.11279 1.13316,2.18526 1.55371,3.33837 2.07578,5.69171 0.44543,11.45276 -2.40615,16.54021 -2.31261,3.39049 -2.70649,4.31755 -5.75526,7.27199 -8.90849,8.63286 -20.57708,13.64614 -31.09322,19.94999 -1.69714,0.80924 -3.36344,1.68662 -5.09142,2.42773 -7.9608,3.41427 -16.48388,5.09492 -25.15012,4.50736 -1.62774,-0.2073 -3.26578,-0.34551 -4.88322,-0.62192 -8.18919,-1.39945 -15.92803,-4.56872 -23.0931,-8.71663 -1.35797,-0.84079 -2.74486,-1.63657 -4.07391,-2.52237 -5.40271,-3.60091 -10.16295,-8.07169 -15.57796,-11.6521 -5.00301,-3.41565 -9.69228,-7.22736 -13.43118,-12.04605 -3.63631,-4.61743 -7.33053,-9.26607 -9.80018,-14.64149 -1.73204,-3.90514 -3.59859,-7.80163 -4.44057,-12.0201 -0.58542,-3.73358 -0.64637,-7.47146 -0.20848,-11.23125 0.34063,-3.29028 0.97789,-6.53118 1.27468,-9.8257 0.36407,-3.44751 0.44191,-6.89097 0.34769,-10.36077 -0.0883,-4.8186 -0.22405,-9.66215 -1.16027,-14.40566 -1.0008,-4.44208 -2.26496,-8.88668 -4.21356,-13.01111 -1.68947,-3.06367 -3.90299,-5.69684 -6.18587,-8.33974 -2.34591,-2.70817 -4.82421,-5.32341 -7.6858,-7.49698 0,0 12.72431,-7.95704 12.72431,-7.95704 z"
       inkscape:connector-curvature="0" />
  </g>
  <g
     inkscape:groupmode="layer"
     id="layer3"
     inkscape:label="Layer"
     style="display:inline"
     sodipodi:insensitive="true">
    <path
       style="fill:#002255;fill-opacity:1;stroke:#002255;stroke-width:8;stroke-linecap:round;stroke-linejoin:round;stroke-miterlimit:4;stroke-opacity:1;stroke-dasharray:none"
       id="path4018"
       d=""
       inkscape:connector-curvature="0" />
  </g>
  <g
     style="display:inline"
     inkscape:label="fej"
     id="g4034"
     inkscape:groupmode="layer"
     sodipodi:insensitive="true">
    <path
       inkscape:connector-curvature="0"
       d="m 381.32281,229.12425 c -0.28507,-0.22849 -12.56159,-2.45365 -15.81986,-3.35651 -2.62782,-0.72815 -5.46746,-1.58178 -7.30089,-2.40954 -4.12908,-1.86418 -8.51585,-3.85237 -10.02786,-4.74897 -2.78803,-1.65328 -5.51387,-3.26412 -6.49572,-3.99515 -1.74478,-1.29906 -3.50311,-2.58016 -5.26303,-3.85699 -3.9928,-2.71819 -7.49171,-5.97856 -10.6687,-9.59564 -2.78794,-2.95475 -4.77635,-6.46482 -6.59883,-10.06069 -1.84711,-4.25608 -2.93137,-8.78471 -3.71722,-13.34187 -0.93365,-4.50987 -0.19327,-8.87932 0.79281,-13.29453 1.43957,-6.40556 3.43953,-12.61446 6.34789,-18.49983 4.48302,-6.95378 9.18635,-13.78369 13.93909,-20.56087 6.17165,-9.06021 13.01616,-13.59706 24.16323,-17.72392 6.6206,-1.91927 13.48164,-1.85071 20.26599,-1.11507 6.64689,0.80698 12.93081,3.07001 19.18251,5.33649 6.97637,2.65162 13.66735,6.14195 19.92269,10.20801 5.39213,3.79472 9.04337,8.72685 12.08744,14.47739 2.80929,5.59525 4.08482,11.77983 5.28133,17.88027 1.2888,7.5898 1.40322,15.30294 0.73194,22.91594 -2.25794,15.31489 -8.7296,44.89552 -21.01728,51.87033 -3.95622,2.9959 -8.82471,6.0659 -13.77051,5.65834 -4.14411,-0.34149 -10.6066,-6.56599 -10.6066,-6.56599 0,0 8.8019,-4.43881 12.9872,-7.03027 9.65073,-4.28011 12.60377,-11.31264 15.38346,-20.32982 1.74863,-5.5893 3.37649,-11.28953 3.96324,-17.11651 0.75148,-7.46294 0.74938,-15.03792 -0.60347,-22.49395 -1.16991,-5.95675 -2.3778,-12.01766 -5.09533,-17.49218 -2.88423,-5.45563 -6.48681,-10.34012 -11.65508,-13.86972 -6.17364,-4.01974 -12.78354,-7.45206 -19.7309,-9.92571 -6.17812,-2.18001 -12.40181,-4.34674 -18.95899,-5.0554 -6.71422,-0.59501 -13.53469,-0.52833 -19.95936,1.78428 -5.23328,2.39528 -6.9824,3.29331 8.27174,-5.19579 0.67756,-0.37707 -1.27349,0.88998 -1.85932,1.39799 -2.1894,1.89857 -3.88837,4.29098 -5.62085,6.58638 -4.81134,6.67417 -9.36212,13.53779 -13.97964,20.3438 -3.00114,5.72213 -5.0097,11.80549 -6.40217,18.1156 -0.92832,4.2288 -1.70224,8.39797 -0.95218,12.74872 0.76081,4.41306 1.56206,8.88244 3.4729,12.9484 1.66318,3.53897 3.82132,6.79614 6.44182,9.73071 3.1286,3.50357 6.55048,6.65653 10.39941,9.37296 2.13103,1.504 4.24073,3.0388 6.34029,4.58716 0.77055,0.56826 2.94678,1.84187 5.31651,3.2136 1.17524,0.6803 4.00118,1.99035 7.12574,3.40116 2.7989,1.26376 7.3771,2.6817 11.10352,3.79456 3.18952,0.95252 15.09894,3.19677 15.39066,3.41432 z"
       id="path4036"
       style="fill:#0071ba;fill-opacity:1;stroke:#002255;stroke-width:8;stroke-linecap:round;stroke-linejoin:round;stroke-miterlimit:4;stroke-opacity:1;stroke-dasharray:none;display:inline"
       sodipodi:nodetypes="csssscccccccccccccccacccaccccccsscccsssssssscc" />
    <path
       style="fill:#000000;fill-opacity:1;stroke:none"
       id="path4226"
       d=""
       inkscape:connector-curvature="0" />
    <path
       style="fill:#000000;fill-opacity:1;stroke:none"
       id="path4005"
       d="m 367.72881,150.81604 c 0.9538,2.98091 1.78678,5.99127 2.4886,9.0426 0.62899,3.03734 1.18682,6.08681 1.54325,9.16862 -0.003,0.61388 0.12451,1.16912 0.22944,1.76032 2.11975,12.31895 -15.30188,15.31674 -17.42164,2.99778 l 0,0 c -0.15492,-0.91549 -0.31604,-1.83271 -0.37229,-2.76094 -0.26972,-2.43494 -0.74079,-4.83708 -1.21486,-7.23933 -0.61679,-2.74364 -1.39812,-5.43404 -2.25,-8.11262 -3.43401,-12.01905 13.56349,-16.87548 16.9975,-4.85643 z"
       inkscape:connector-curvature="0" />
    <path
       style="fill:#000000;fill-opacity:1;stroke:none"
       id="path4007"
       d="m 409.70474,167.35904 c -1.29453,2.44869 -2.46959,4.95825 -3.70477,7.43752 -0.86675,1.78605 -1.8348,3.52026 -2.73362,5.28976 -5.68964,11.13005 -21.4299,3.08369 -15.74027,-8.04636 l 0,0 c 0.87864,-1.71158 1.8025,-3.39984 2.65133,-5.12672 1.23897,-2.48657 2.42024,-5.00268 3.71595,-7.45989 5.59017,-11.18034 21.40155,-3.27465 15.81138,7.90569 z"
       inkscape:connector-curvature="0" />
  </g>
</svg>
